<svg width="60" height="12" viewBox="0 0 60 12" fill="none" xmlns="http://www.w3.org/2000/svg">
<g clip-path="url(#clip0_4_128)">
<path d="M5.76255 1.14751C5.78446 1.10324 5.81831 1.06597 5.86027 1.03992C5.90224 1.01387 5.95065 1.00006 6.00005 1.00006C6.04944 1.00006 6.09785 1.01387 6.13982 1.03992C6.18179 1.06597 6.21563 1.10324 6.23755 1.14751L7.39255 3.48701C7.46863 3.64099 7.58095 3.77421 7.71986 3.87523C7.85876 3.97626 8.02011 4.04206 8.19004 4.06701L10.773 4.44501C10.822 4.4521 10.868 4.47274 10.9058 4.50461C10.9436 4.53647 10.9718 4.57828 10.9871 4.62531C11.0023 4.67234 11.0042 4.72271 10.9923 4.77073C10.9805 4.81874 10.9555 4.86248 10.92 4.89701L9.05205 6.71601C8.92885 6.83606 8.83668 6.98425 8.78346 7.14782C8.73025 7.3114 8.71758 7.48545 8.74655 7.65501L9.18755 10.225C9.19619 10.2739 9.1909 10.3243 9.17229 10.3703C9.15369 10.4164 9.12251 10.4563 9.08232 10.4855C9.04212 10.5147 8.99453 10.532 8.94498 10.5355C8.89542 10.5389 8.84589 10.5284 8.80205 10.505L6.49305 9.29101C6.3409 9.21112 6.17164 9.16938 5.9998 9.16938C5.82796 9.16938 5.65869 9.21112 5.50655 9.29101L3.19805 10.505C3.15421 10.5282 3.10474 10.5387 3.05527 10.5351C3.0058 10.5316 2.9583 10.5143 2.91819 10.4851C2.87808 10.4559 2.84696 10.4161 2.82837 10.3701C2.80979 10.3241 2.80447 10.2739 2.81305 10.225L3.25355 7.65551C3.28264 7.48587 3.27004 7.31171 3.21681 7.14803C3.16359 6.98436 3.07135 6.83609 2.94805 6.71601L1.08005 4.89751C1.04434 4.86302 1.01904 4.81921 1.00703 4.77104C0.995011 4.72288 0.996764 4.67232 1.01208 4.6251C1.02741 4.57789 1.05568 4.53593 1.09368 4.504C1.13169 4.47207 1.1779 4.45146 1.22705 4.44451L3.80955 4.06701C3.97967 4.04226 4.14124 3.97654 4.28034 3.8755C4.41944 3.77447 4.5319 3.64114 4.60805 3.48701L5.76255 1.14751Z" fill="#FFBA00" stroke="#FFBA00" stroke-linecap="round" stroke-linejoin="round"/>
</g>
<g clip-path="url(#clip1_4_128)">
<path d="M17.7625 1.14751C17.7845 1.10324 17.8183 1.06597 17.8603 1.03992C17.9022 1.01387 17.9506 1.00006 18 1.00006C18.0494 1.00006 18.0979 1.01387 18.1398 1.03992C18.1818 1.06597 18.2156 1.10324 18.2375 1.14751L19.3925 3.48701C19.4686 3.64099 19.581 3.77421 19.7199 3.87523C19.8588 3.97626 20.0201 4.04206 20.19 4.06701L22.773 4.44501C22.822 4.4521 22.868 4.47274 22.9058 4.50461C22.9436 4.53647 22.9718 4.57828 22.9871 4.62531C23.0023 4.67234 23.0042 4.72271 22.9923 4.77073C22.9805 4.81874 22.9555 4.86248 22.92 4.89701L21.052 6.71601C20.9289 6.83606 20.8367 6.98425 20.7835 7.14782C20.7302 7.3114 20.7176 7.48545 20.7465 7.65501L21.1875 10.225C21.1962 10.2739 21.1909 10.3243 21.1723 10.3703C21.1537 10.4164 21.1225 10.4563 21.0823 10.4855C21.0421 10.5147 20.9945 10.532 20.945 10.5355C20.8954 10.5389 20.8459 10.5284 20.802 10.505L18.493 9.29101C18.3409 9.21112 18.1716 9.16938 17.9998 9.16938C17.828 9.16938 17.6587 9.21112 17.5065 9.29101L15.198 10.505C15.1542 10.5282 15.1047 10.5387 15.0553 10.5351C15.0058 10.5316 14.9583 10.5143 14.9182 10.4851C14.8781 10.4559 14.847 10.4161 14.8284 10.3701C14.8098 10.3241 14.8045 10.2739 14.813 10.225L15.2535 7.65551C15.2826 7.48587 15.27 7.31171 15.2168 7.14803C15.1636 6.98436 15.0713 6.83609 14.948 6.71601L13.08 4.89751C13.0443 4.86302 13.019 4.81921 13.007 4.77104C12.995 4.72288 12.9968 4.67232 13.0121 4.6251C13.0274 4.57789 13.0557 4.53593 13.0937 4.504C13.1317 4.47207 13.1779 4.45146 13.227 4.44451L15.8095 4.06701C15.9797 4.04226 16.1412 3.97654 16.2803 3.8755C16.4194 3.77447 16.5319 3.64114 16.608 3.48701L17.7625 1.14751Z" fill="#FFBA00" stroke="#FFBA00" stroke-linecap="round" stroke-linejoin="round"/>
</g>
<g clip-path="url(#clip2_4_128)">
<path d="M29.7625 1.14751C29.7845 1.10324 29.8183 1.06597 29.8603 1.03992C29.9022 1.01387 29.9506 1.00006 30 1.00006C30.0494 1.00006 30.0979 1.01387 30.1398 1.03992C30.1818 1.06597 30.2156 1.10324 30.2375 1.14751L31.3925 3.48701C31.4686 3.64099 31.581 3.77421 31.7199 3.87523C31.8588 3.97626 32.0201 4.04206 32.19 4.06701L34.773 4.44501C34.822 4.4521 34.868 4.47274 34.9058 4.50461C34.9436 4.53647 34.9718 4.57828 34.9871 4.62531C35.0023 4.67234 35.0042 4.72271 34.9923 4.77073C34.9805 4.81874 34.9555 4.86248 34.92 4.89701L33.052 6.71601C32.9289 6.83606 32.8367 6.98425 32.7835 7.14782C32.7302 7.3114 32.7176 7.48545 32.7465 7.65501L33.1875 10.225C33.1962 10.2739 33.1909 10.3243 33.1723 10.3703C33.1537 10.4164 33.1225 10.4563 33.0823 10.4855C33.0421 10.5147 32.9945 10.532 32.945 10.5355C32.8954 10.5389 32.8459 10.5284 32.802 10.505L30.493 9.29101C30.3409 9.21112 30.1716 9.16938 29.9998 9.16938C29.828 9.16938 29.6587 9.21112 29.5065 9.29101L27.198 10.505C27.1542 10.5282 27.1047 10.5387 27.0553 10.5351C27.0058 10.5316 26.9583 10.5143 26.9182 10.4851C26.8781 10.4559 26.847 10.4161 26.8284 10.3701C26.8098 10.3241 26.8045 10.2739 26.813 10.225L27.2535 7.65551C27.2826 7.48587 27.27 7.31171 27.2168 7.14803C27.1636 6.98436 27.0713 6.83609 26.948 6.71601L25.08 4.89751C25.0443 4.86302 25.019 4.81921 25.007 4.77104C24.995 4.72288 24.9968 4.67232 25.0121 4.6251C25.0274 4.57789 25.0557 4.53593 25.0937 4.504C25.1317 4.47207 25.1779 4.45146 25.227 4.44451L27.8095 4.06701C27.9797 4.04226 28.1412 3.97654 28.2803 3.8755C28.4194 3.77447 28.5319 3.64114 28.608 3.48701L29.7625 1.14751Z" fill="#FFBA00" stroke="#FFBA00" stroke-linecap="round" stroke-linejoin="round"/>
</g>
<g clip-path="url(#clip3_4_128)">
<path d="M41.7625 1.14751C41.7845 1.10324 41.8183 1.06597 41.8603 1.03992C41.9022 1.01387 41.9506 1.00006 42 1.00006C42.0494 1.00006 42.0979 1.01387 42.1398 1.03992C42.1818 1.06597 42.2156 1.10324 42.2375 1.14751L43.3925 3.48701C43.4686 3.64099 43.581 3.77421 43.7199 3.87523C43.8588 3.97626 44.0201 4.04206 44.19 4.06701L46.773 4.44501C46.822 4.4521 46.868 4.47274 46.9058 4.50461C46.9436 4.53647 46.9718 4.57828 46.9871 4.62531C47.0023 4.67234 47.0042 4.72271 46.9923 4.77073C46.9805 4.81874 46.9555 4.86248 46.92 4.89701L45.052 6.71601C44.9289 6.83606 44.8367 6.98425 44.7835 7.14782C44.7302 7.3114 44.7176 7.48545 44.7465 7.65501L45.1875 10.225C45.1962 10.2739 45.1909 10.3243 45.1723 10.3703C45.1537 10.4164 45.1225 10.4563 45.0823 10.4855C45.0421 10.5147 44.9945 10.532 44.945 10.5355C44.8954 10.5389 44.8459 10.5284 44.802 10.505L42.493 9.29101C42.3409 9.21112 42.1716 9.16938 41.9998 9.16938C41.828 9.16938 41.6587 9.21112 41.5065 9.29101L39.198 10.505C39.1542 10.5282 39.1047 10.5387 39.0553 10.5351C39.0058 10.5316 38.9583 10.5143 38.9182 10.4851C38.8781 10.4559 38.847 10.4161 38.8284 10.3701C38.8098 10.3241 38.8045 10.2739 38.813 10.225L39.2535 7.65551C39.2826 7.48587 39.27 7.31171 39.2168 7.14803C39.1636 6.98436 39.0713 6.83609 38.948 6.71601L37.08 4.89751C37.0443 4.86302 37.019 4.81921 37.007 4.77104C36.995 4.72288 36.9968 4.67232 37.0121 4.6251C37.0274 4.57789 37.0557 4.53593 37.0937 4.504C37.1317 4.47207 37.1779 4.45146 37.227 4.44451L39.8095 4.06701C39.9797 4.04226 40.1412 3.97654 40.2803 3.8755C40.4194 3.77447 40.5319 3.64114 40.608 3.48701L41.7625 1.14751Z" fill="#FFBA00" stroke="#FFBA00" stroke-linecap="round" stroke-linejoin="round"/>
</g>
<g clip-path="url(#clip4_4_128)">
<path d="M53.7625 1.14751C53.7845 1.10324 53.8183 1.06597 53.8603 1.03992C53.9022 1.01387 53.9506 1.00006 54 1.00006C54.0494 1.00006 54.0979 1.01387 54.1398 1.03992C54.1818 1.06597 54.2156 1.10324 54.2375 1.14751L55.3925 3.48701C55.4686 3.64099 55.581 3.77421 55.7199 3.87523C55.8588 3.97626 56.0201 4.04206 56.19 4.06701L58.773 4.44501C58.822 4.4521 58.868 4.47274 58.9058 4.50461C58.9436 4.53647 58.9718 4.57828 58.9871 4.62531C59.0023 4.67234 59.0042 4.72271 58.9923 4.77073C58.9805 4.81874 58.9555 4.86248 58.92 4.89701L57.052 6.71601C56.9289 6.83606 56.8367 6.98425 56.7835 7.14782C56.7302 7.3114 56.7176 7.48545 56.7465 7.65501L57.1875 10.225C57.1962 10.2739 57.1909 10.3243 57.1723 10.3703C57.1537 10.4164 57.1225 10.4563 57.0823 10.4855C57.0421 10.5147 56.9945 10.532 56.945 10.5355C56.8954 10.5389 56.8459 10.5284 56.802 10.505L54.493 9.29101C54.3409 9.21112 54.1716 9.16938 53.9998 9.16938C53.828 9.16938 53.6587 9.21112 53.5065 9.29101L51.198 10.505C51.1542 10.5282 51.1047 10.5387 51.0553 10.5351C51.0058 10.5316 50.9583 10.5143 50.9182 10.4851C50.8781 10.4559 50.847 10.4161 50.8284 10.3701C50.8098 10.3241 50.8045 10.2739 50.813 10.225L51.2535 7.65551C51.2826 7.48587 51.27 7.31171 51.2168 7.14803C51.1636 6.98436 51.0713 6.83609 50.948 6.71601L49.08 4.89751C49.0443 4.86302 49.019 4.81921 49.007 4.77104C48.995 4.72288 48.9968 4.67232 49.0121 4.6251C49.0274 4.57789 49.0557 4.53593 49.0937 4.504C49.1317 4.47207 49.1779 4.45146 49.227 4.44451L51.8095 4.06701C51.9797 4.04226 52.1412 3.97654 52.2803 3.8755C52.4194 3.77447 52.5319 3.64114 52.608 3.48701L53.7625 1.14751Z" fill="#FFBA00" stroke="#FFBA00" stroke-linecap="round" stroke-linejoin="round"/>
</g>
<defs>
<clipPath id="clip0_4_128">
<rect width="12" height="12" fill="white"/>
</clipPath>
<clipPath id="clip1_4_128">
<rect width="12" height="12" fill="white" transform="translate(12)"/>
</clipPath>
<clipPath id="clip2_4_128">
<rect width="12" height="12" fill="white" transform="translate(24)"/>
</clipPath>
<clipPath id="clip3_4_128">
<rect width="12" height="12" fill="white" transform="translate(36)"/>
</clipPath>
<clipPath id="clip4_4_128">
<rect width="12" height="12" fill="white" transform="translate(48)"/>
</clipPath>
</defs>
</svg>
